<svg width="33" height="32" viewBox="0 0 33 32" fill="none" xmlns="http://www.w3.org/2000/svg">
<path d="M32.5645 16.0596C32.5645 7.18918 25.3753 0 16.5049 0C7.63449 0 0.445312 7.18918 0.445312 16.0596C0.445312 23.5875 5.63331 29.911 12.628 31.6487V20.9653H9.31573V16.0596H12.628V13.9455C12.628 8.48147 15.0997 5.94707 20.4696 5.94707C21.4859 5.94707 23.2424 6.14781 23.9638 6.34856V10.79C23.5874 10.7524 22.9287 10.7273 22.1069 10.7273C19.4722 10.7273 18.4559 11.7248 18.4559 14.3156V16.0596H23.7004L22.797 20.9653H18.4496V32C26.4041 31.0402 32.5645 24.2713 32.5645 16.0596Z" fill="white"/>
</svg>
