<svg width="33" height="32" viewBox="0 0 33 32" fill="none" xmlns="http://www.w3.org/2000/svg">
<path d="M16.4426 7.7956C11.9012 7.7956 8.23817 11.4587 8.23817 16C8.23817 20.5413 11.9012 24.2044 16.4426 24.2044C20.9839 24.2044 24.647 20.5413 24.647 16C24.647 11.4587 20.9839 7.7956 16.4426 7.7956ZM16.4426 21.3339C13.5078 21.3339 11.1086 18.9419 11.1086 16C11.1086 13.0581 13.5007 10.6661 16.4426 10.6661C19.3844 10.6661 21.7765 13.0581 21.7765 16C21.7765 18.9419 19.3773 21.3339 16.4426 21.3339ZM26.8962 7.46C26.8962 8.52393 26.0394 9.37365 24.9826 9.37365C23.9186 9.37365 23.0689 8.51679 23.0689 7.46C23.0689 6.40321 23.9258 5.54636 24.9826 5.54636C26.0394 5.54636 26.8962 6.40321 26.8962 7.46ZM32.3301 9.40221C32.2087 6.83878 31.6232 4.56811 29.7453 2.69731C27.8745 0.826509 25.6038 0.240991 23.0404 0.112462C20.3984 -0.0374874 12.4796 -0.0374874 9.83763 0.112462C7.28135 0.23385 5.01068 0.819368 3.13274 2.69017C1.25479 4.56097 0.676416 6.83164 0.547887 9.39507C0.397937 12.037 0.397937 19.9558 0.547887 22.5978C0.669275 25.1612 1.25479 27.4319 3.13274 29.3027C5.01068 31.1735 7.27421 31.759 9.83763 31.8875C12.4796 32.0375 20.3984 32.0375 23.0404 31.8875C25.6038 31.7661 27.8745 31.1806 29.7453 29.3027C31.6161 27.4319 32.2016 25.1612 32.3301 22.5978C32.4801 19.9558 32.4801 12.0442 32.3301 9.40221ZM28.917 25.4326C28.36 26.8321 27.2818 27.9103 25.8751 28.4744C23.7687 29.3098 18.7704 29.117 16.4426 29.117C14.1148 29.117 9.10931 29.3027 7.01001 28.4744C5.61048 27.9174 4.53227 26.8392 3.96817 25.4326C3.13274 23.3261 3.32553 18.3278 3.32553 16C3.32553 13.6722 3.13988 8.66674 3.96817 6.56744C4.52513 5.16791 5.60334 4.0897 7.01001 3.52561C9.11645 2.69017 14.1148 2.88296 16.4426 2.88296C18.7704 2.88296 23.7758 2.69731 25.8751 3.52561C27.2747 4.08256 28.3529 5.16077 28.917 6.56744C29.7524 8.67388 29.5596 13.6722 29.5596 16C29.5596 18.3278 29.7524 23.3333 28.917 25.4326Z" fill="white"/>
</svg>
