<svg width="29" height="32" viewBox="0 0 29 32" fill="none" xmlns="http://www.w3.org/2000/svg">
<path d="M28.4454 13.12C25.6926 13.1259 23.0075 12.2666 20.7696 10.6635V21.8396C20.769 23.9095 20.1364 25.9298 18.9564 27.6304C17.7764 29.331 16.1053 30.6308 14.1666 31.3559C12.228 32.081 10.1141 32.1969 8.10772 31.6881C6.10136 31.1793 4.29819 30.07 2.93937 28.5086C1.58054 26.9472 0.730839 25.0082 0.503905 22.9508C0.27697 20.8934 0.683622 18.8158 1.66947 16.9958C2.65532 15.1757 4.17337 13.7001 6.02059 12.7662C7.86781 11.8324 9.95614 11.4848 12.0063 11.7699V17.3892C11.0688 17.0941 10.0621 17.1027 9.12992 17.4139C8.19769 17.725 7.3876 18.3227 6.81531 19.1217C6.24303 19.9207 5.93781 20.88 5.94325 21.8628C5.94868 22.8455 6.26448 23.8015 6.84557 24.594C7.42665 25.3866 8.2433 25.9754 9.17891 26.2762C10.1145 26.577 11.1213 26.5745 12.0554 26.269C12.9895 25.9636 13.8032 25.3708 14.3803 24.5754C14.9575 23.7799 15.2685 22.8224 15.2691 21.8396V0H20.7696C20.7665 0.465211 20.8063 0.929719 20.8884 1.38764C21.0797 2.40836 21.4771 3.37936 22.0564 4.24129C22.6357 5.10321 23.3846 5.83796 24.2575 6.40063C25.4999 7.22124 26.9564 7.65817 28.4454 7.657V13.12Z" fill="white"/>
</svg>
